<svg width="26" height="26" viewBox="0 0 26 26" fill="none" xmlns="http://www.w3.org/2000/svg">
<path fill-rule="evenodd" clip-rule="evenodd" d="M13.0281 2.16663C7.05998 2.16663 2.2229 7.00371 2.2229 12.9718C2.2229 17.745 5.31798 21.7955 9.61232 23.2255C10.1529 23.323 10.3479 22.9905 10.3479 22.7045C10.3479 22.4477 10.3392 21.7674 10.336 20.8671C7.32973 21.5193 6.6949 19.4176 6.6949 19.4176C6.20523 18.1696 5.49565 17.837 5.49565 17.837C4.51523 17.1665 5.5704 17.1816 5.5704 17.1816C6.6559 17.2575 7.22465 18.2953 7.22465 18.2953C8.18882 19.9463 9.75532 19.4696 10.3685 19.1934C10.4671 18.4946 10.7487 18.018 11.0564 17.7482C8.6579 17.4763 6.1359 16.549 6.1359 12.4074C6.1359 11.2298 6.55732 10.2635 7.24523 9.50946C7.13582 9.23538 6.76207 8.13579 7.35248 6.64946C7.35248 6.64946 8.25923 6.35804 10.323 7.75554C11.2044 7.51577 12.1136 7.39338 13.027 7.39154C13.9404 7.39303 14.8497 7.51542 15.731 7.75554C17.7958 6.35696 18.7015 6.64946 18.7015 6.64946C19.2919 8.13579 18.9214 9.23538 18.8087 9.50946C19.5021 10.2635 19.9181 11.2287 19.9181 12.4074C19.9181 16.5598 17.3939 17.472 14.9867 17.7395C15.3713 18.0732 15.718 18.7319 15.718 19.7394C15.718 21.1845 15.705 22.3502 15.705 22.7045C15.705 22.9937 15.8978 23.3295 16.4492 23.2234C20.7414 21.7912 23.8332 17.7439 23.8332 12.9718C23.8332 7.00371 18.9962 2.16663 13.0281 2.16663Z" fill="#D3E97A"/>
</svg>
